<?xml version="1.0" encoding="UTF-8" standalone="no"?>
<svg
   xmlns:dc="http://purl.org/dc/elements/1.1/"
   xmlns:cc="http://creativecommons.org/ns#"
   xmlns:rdf="http://www.w3.org/1999/02/22-rdf-syntax-ns#"
   xmlns:svg="http://www.w3.org/2000/svg"
   xmlns="http://www.w3.org/2000/svg"
   xmlns:sodipodi="http://sodipodi.sourceforge.net/DTD/sodipodi-0.dtd"
   xmlns:inkscape="http://www.inkscape.org/namespaces/inkscape"
   width="636pt"
   height="832.5pt"
   viewBox="-424 -555 848 1110"
   version="1.1"
   id="svg48"
   sodipodi:docname="ind_3t_6w_6s_25r.svg"
   inkscape:version="0.92.3 (2405546, 2018-03-11)">
  <metadata
     id="metadata54">
    <rdf:RDF>
      <cc:Work
         rdf:about="">
        <dc:format>image/svg+xml</dc:format>
        <dc:type
           rdf:resource="http://purl.org/dc/dcmitype/StillImage" />
        <dc:title></dc:title>
      </cc:Work>
    </rdf:RDF>
  </metadata>
  <defs
     id="defs52">
    <marker
       inkscape:isstock="true"
       style="overflow:visible"
       id="marker3154"
       refX="0"
       refY="0"
       orient="auto"
       inkscape:stockid="Arrow2Lend">
      <path
         transform="matrix(-1.1,0,0,-1.1,-1.1,0)"
         d="M 8.7185878,4.0337352 -2.2072895,0.01601326 8.7185884,-4.0017078 c -1.7454984,2.3720609 -1.7354408,5.6174519 -6e-7,8.035443 z"
         style="fill:#000000;fill-opacity:1;fill-rule:evenodd;stroke:#000000;stroke-width:0.625;stroke-linejoin:round;stroke-opacity:1"
         id="path3152"
         inkscape:connector-curvature="0" />
    </marker>
    <marker
       inkscape:stockid="Arrow2Lstart"
       orient="auto"
       refY="0"
       refX="0"
       id="Arrow2Lstart"
       style="overflow:visible"
       inkscape:isstock="true">
      <path
         id="path912"
         style="fill:#000000;fill-opacity:1;fill-rule:evenodd;stroke:#000000;stroke-width:0.625;stroke-linejoin:round;stroke-opacity:1"
         d="M 8.7185878,4.0337352 -2.2072895,0.01601326 8.7185884,-4.0017078 c -1.7454984,2.3720609 -1.7354408,5.6174519 -6e-7,8.035443 z"
         transform="matrix(1.1,0,0,1.1,1.1,0)"
         inkscape:connector-curvature="0" />
    </marker>
    <marker
       inkscape:stockid="Arrow2Lend"
       orient="auto"
       refY="0"
       refX="0"
       id="Arrow2Lend"
       style="overflow:visible"
       inkscape:isstock="true"
       inkscape:collect="always">
      <path
         id="path915"
         style="fill:#000000;fill-opacity:1;fill-rule:evenodd;stroke:#000000;stroke-width:0.625;stroke-linejoin:round;stroke-opacity:1"
         d="M 8.7185878,4.0337352 -2.2072895,0.01601326 8.7185884,-4.0017078 c -1.7454984,2.3720609 -1.7354408,5.6174519 -6e-7,8.035443 z"
         transform="matrix(-1.1,0,0,-1.1,-1.1,0)"
         inkscape:connector-curvature="0" />
    </marker>
    <marker
       inkscape:stockid="Arrow1Lstart"
       orient="auto"
       refY="0"
       refX="0"
       id="Arrow1Lstart"
       style="overflow:visible"
       inkscape:isstock="true">
      <path
         id="path894"
         d="M 0,0 5,-5 -12.5,0 5,5 Z"
         style="fill:#000000;fill-opacity:1;fill-rule:evenodd;stroke:#000000;stroke-width:1.00000003pt;stroke-opacity:1"
         transform="matrix(0.8,0,0,0.8,10,0)"
         inkscape:connector-curvature="0" />
    </marker>
    <marker
       inkscape:stockid="Arrow2Lstart"
       orient="auto"
       refY="0"
       refX="0"
       id="Arrow2Lstart-3"
       style="overflow:visible"
       inkscape:isstock="true">
      <path
         inkscape:connector-curvature="0"
         id="path912-6"
         style="fill:#000000;fill-opacity:1;fill-rule:evenodd;stroke:#000000;stroke-width:0.625;stroke-linejoin:round;stroke-opacity:1"
         d="M 8.7185878,4.0337352 -2.2072895,0.01601326 8.7185884,-4.0017078 c -1.7454984,2.3720609 -1.7354408,5.6174519 -6e-7,8.035443 z"
         transform="matrix(1.1,0,0,1.1,1.1,0)" />
    </marker>
    <marker
       inkscape:stockid="Arrow2Lend"
       orient="auto"
       refY="0"
       refX="0"
       id="Arrow2Lend-7"
       style="overflow:visible"
       inkscape:isstock="true">
      <path
         inkscape:connector-curvature="0"
         id="path915-5"
         style="fill:#000000;fill-opacity:1;fill-rule:evenodd;stroke:#000000;stroke-width:0.625;stroke-linejoin:round;stroke-opacity:1"
         d="M 8.7185878,4.0337352 -2.2072895,0.01601326 8.7185884,-4.0017078 c -1.7454984,2.3720609 -1.7354408,5.6174519 -6e-7,8.035443 z"
         transform="matrix(-1.1,0,0,-1.1,-1.1,0)" />
    </marker>
    <marker
       inkscape:stockid="Arrow2Lstart"
       orient="auto"
       refY="0"
       refX="0"
       id="Arrow2Lstart-3-3"
       style="overflow:visible"
       inkscape:isstock="true">
      <path
         inkscape:connector-curvature="0"
         id="path912-6-6"
         style="fill:#000000;fill-opacity:1;fill-rule:evenodd;stroke:#000000;stroke-width:0.625;stroke-linejoin:round;stroke-opacity:1"
         d="M 8.7185878,4.0337352 -2.2072895,0.01601326 8.7185884,-4.0017078 c -1.7454984,2.3720609 -1.7354408,5.6174519 -6e-7,8.035443 z"
         transform="matrix(1.1,0,0,1.1,1.1,0)" />
    </marker>
    <marker
       inkscape:stockid="Arrow2Lend"
       orient="auto"
       refY="0"
       refX="0"
       id="Arrow2Lend-7-0"
       style="overflow:visible"
       inkscape:isstock="true">
      <path
         inkscape:connector-curvature="0"
         id="path915-5-6"
         style="fill:#000000;fill-opacity:1;fill-rule:evenodd;stroke:#000000;stroke-width:0.625;stroke-linejoin:round;stroke-opacity:1"
         d="M 8.7185878,4.0337352 -2.2072895,0.01601326 8.7185884,-4.0017078 c -1.7454984,2.3720609 -1.7354408,5.6174519 -6e-7,8.035443 z"
         transform="matrix(-1.1,0,0,-1.1,-1.1,0)" />
    </marker>
    <marker
       inkscape:isstock="true"
       style="overflow:visible"
       id="marker3154-8"
       refX="0"
       refY="0"
       orient="auto"
       inkscape:stockid="Arrow2Lend">
      <path
         inkscape:connector-curvature="0"
         transform="matrix(-1.1,0,0,-1.1,-1.1,0)"
         d="M 8.7185878,4.0337352 -2.2072895,0.01601326 8.7185884,-4.0017078 c -1.7454984,2.3720609 -1.7354408,5.6174519 -6e-7,8.035443 z"
         style="fill:#000000;fill-opacity:1;fill-rule:evenodd;stroke:#000000;stroke-width:0.625;stroke-linejoin:round;stroke-opacity:1"
         id="path3152-7" />
    </marker>
    <marker
       inkscape:stockid="Arrow2Lstart"
       orient="auto"
       refY="0"
       refX="0"
       id="Arrow2Lstart-9"
       style="overflow:visible"
       inkscape:isstock="true">
      <path
         inkscape:connector-curvature="0"
         id="path912-7"
         style="fill:#000000;fill-opacity:1;fill-rule:evenodd;stroke:#000000;stroke-width:0.625;stroke-linejoin:round;stroke-opacity:1"
         d="M 8.7185878,4.0337352 -2.2072895,0.01601326 8.7185884,-4.0017078 c -1.7454984,2.3720609 -1.7354408,5.6174519 -6e-7,8.035443 z"
         transform="matrix(1.1,0,0,1.1,1.1,0)" />
    </marker>
    <marker
       inkscape:stockid="Arrow2Lend"
       orient="auto"
       refY="0"
       refX="0"
       id="Arrow2Lend-3"
       style="overflow:visible"
       inkscape:isstock="true"
       inkscape:collect="always">
      <path
         inkscape:connector-curvature="0"
         id="path915-6"
         style="fill:#000000;fill-opacity:1;fill-rule:evenodd;stroke:#000000;stroke-width:0.625;stroke-linejoin:round;stroke-opacity:1"
         d="M 8.7185878,4.0337352 -2.2072895,0.01601326 8.7185884,-4.0017078 c -1.7454984,2.3720609 -1.7354408,5.6174519 -6e-7,8.035443 z"
         transform="matrix(-1.1,0,0,-1.1,-1.1,0)" />
    </marker>
  </defs>
  <sodipodi:namedview
     pagecolor="#ffffff"
     bordercolor="#666666"
     borderopacity="1"
     objecttolerance="10"
     gridtolerance="10"
     guidetolerance="10"
     inkscape:pageopacity="0"
     inkscape:pageshadow="2"
     inkscape:window-width="1366"
     inkscape:window-height="731"
     id="namedview50"
     showgrid="false"
     inkscape:zoom="1.7009009"
     inkscape:cx="411.66325"
     inkscape:cy="674.55864"
     inkscape:window-x="0"
     inkscape:window-y="37"
     inkscape:window-maximized="0"
     inkscape:current-layer="svg48"
     scale-x="2.5"
     units="cm"
     inkscape:measure-start="249.868,766.653"
     inkscape:measure-end="600.27,766.653" />
  <g
     id="g886"
     transform="translate(-2.8000031,117.60001)">
    <g
       style="opacity:0.5;fill:#0000ff;stroke:#0000ff"
       transform="matrix(1,0,0,-1,2.8000031,-236.60001)"
       id="g40">
      <polyline
         id="polyline4"
         points="21.000,-196.000 21.000,-623.000 63.000,-623.000 63.000,-196.000" />
      <rect
         id="rect6"
         height="42"
         width="42"
         y="-217"
         x="21" />
      <rect
         id="rect8"
         height="5.5999999"
         width="5.5999999"
         y="-215.60001"
         x="22.4" />
      <rect
         id="rect10"
         height="5.5999999"
         width="5.5999999"
         y="-204.39999"
         x="22.4" />
      <rect
         id="rect12"
         height="5.5999999"
         width="5.5999999"
         y="-193.2"
         x="22.4" />
      <rect
         id="rect14"
         height="5.5999999"
         width="5.5999999"
         y="-182"
         x="22.4" />
      <rect
         id="rect16"
         height="5.5999999"
         width="5.5999999"
         y="-215.60001"
         x="33.599998" />
      <rect
         id="rect18"
         height="5.5999999"
         width="5.5999999"
         y="-204.39999"
         x="33.599998" />
      <rect
         id="rect20"
         height="5.5999999"
         width="5.5999999"
         y="-193.2"
         x="33.599998" />
      <rect
         id="rect22"
         height="5.5999999"
         width="5.5999999"
         y="-182"
         x="33.599998" />
      <rect
         id="rect24"
         height="5.5999999"
         width="5.5999999"
         y="-215.60001"
         x="44.799999" />
      <rect
         id="rect26"
         height="5.5999999"
         width="5.5999999"
         y="-204.39999"
         x="44.799999" />
      <rect
         id="rect28"
         height="5.5999999"
         width="5.5999999"
         y="-193.2"
         x="44.799999" />
      <rect
         id="rect30"
         height="5.5999999"
         width="5.5999999"
         y="-182"
         x="44.799999" />
      <rect
         id="rect32"
         height="5.5999999"
         width="5.5999999"
         y="-215.60001"
         x="56" />
      <rect
         id="rect34"
         height="5.5999999"
         width="5.5999999"
         y="-204.39999"
         x="56" />
      <rect
         id="rect36"
         height="5.5999999"
         width="5.5999999"
         y="-193.2"
         x="56" />
      <rect
         id="rect38"
         height="5.5999999"
         width="5.5999999"
         y="-182"
         x="56" />
    </g>
    <g
       style="opacity:0.5;fill:#ff0000;stroke:#ff0000"
       transform="matrix(1,0,0,-1,2.8000031,-236.60001)"
       id="g46">
      <polyline
         id="polyline42"
         points="42.000,-217.000 217.000,-217.000 217.000,217.000 -217.000,217.000 -217.000,-301.000 301.000,-301.000 301.000,301.000 -301.000,301.000 -301.000,-385.000 385.000,-385.000 385.000,385.000 -385.000,385.000 -385.000,-469.000 -63.000,-469.000 -63.000,-623.000 -21.000,-623.000 -21.000,-427.000 -343.000,-427.000 -343.000,343.000 343.000,343.000 343.000,-343.000 -259.000,-343.000 -259.000,259.000 259.000,259.000 259.000,-259.000 -175.000,-259.000 -175.000,175.000 175.000,175.000 175.000,-175.000 42.000,-175.000" />
      <rect
         id="rect44"
         height="42"
         width="42"
         y="-217"
         x="21" />
    </g>
  </g>
  <text
     xml:space="preserve"
     style="font-style:normal;font-weight:normal;font-size:40px;line-height:1.25;font-family:sans-serif;letter-spacing:0px;word-spacing:0px;fill:#000000;fill-opacity:1;stroke:none"
     x="28.932245"
     y="454.39462"
     id="text890"><tspan
       sodipodi:role="line"
       id="tspan888"
       x="28.932245"
       y="454.39462">6um</tspan></text>
  <path
     style="fill:none;stroke:#000000;stroke-width:1px;stroke-linecap:butt;stroke-linejoin:miter;stroke-opacity:1;marker-start:url(#Arrow2Lstart);marker-end:url(#Arrow2Lend);image-rendering:auto"
     d="m -20.807772,439.55173 h 41.15676"
     id="path892"
     inkscape:connector-curvature="0" />
  <text
     xml:space="preserve"
     style="font-style:normal;font-weight:normal;font-size:40px;line-height:1.25;font-family:sans-serif;letter-spacing:0px;word-spacing:0px;fill:#000000;fill-opacity:1;stroke:none"
     x="97.619041"
     y="217.39423"
     id="text890-3"><tspan
       sodipodi:role="line"
       id="tspan888-5"
       x="97.619041"
       y="217.39423">6um</tspan></text>
  <path
     style="fill:none;stroke:#000000;stroke-width:1px;stroke-linecap:butt;stroke-linejoin:miter;stroke-opacity:1;marker-start:url(#Arrow2Lstart-3);marker-end:url(#Arrow2Lend-7);image-rendering:auto"
     d="M 84.91926,223.71765 V 182.56089"
     id="path892-6"
     inkscape:connector-curvature="0" />
  <text
     xml:space="preserve"
     style="font-style:normal;font-weight:normal;font-size:40px;line-height:1.25;font-family:sans-serif;letter-spacing:0px;word-spacing:0px;fill:#000000;fill-opacity:1;stroke:none"
     x="185.06947"
     y="259.53998"
     id="text890-3-2"><tspan
       sodipodi:role="line"
       id="tspan888-5-6"
       x="185.06947"
       y="259.53998">6um</tspan></text>
  <path
     style="fill:none;stroke:#000000;stroke-width:1px;stroke-linecap:butt;stroke-linejoin:miter;stroke-opacity:1;marker-start:url(#Arrow2Lstart-3-3);marker-end:url(#Arrow2Lend-7-0);image-rendering:auto"
     d="M 172.36971,265.86337 V 224.70661"
     id="path892-6-1"
     inkscape:connector-curvature="0" />
  <text
     xml:space="preserve"
     style="font-style:normal;font-weight:normal;font-size:40px;line-height:1.25;font-family:sans-serif;letter-spacing:0px;word-spacing:0px;fill:#000000;fill-opacity:1;stroke:none"
     x="-193.68842"
     y="531.30377"
     id="text3138"><tspan
       sodipodi:role="line"
       x="-193.68842"
       y="531.30377"
       id="tspan3140">Port1</tspan></text>
  <path
     style="fill:none;stroke:#000000;stroke-width:1px;stroke-linecap:butt;stroke-linejoin:miter;stroke-opacity:1;marker-end:url(#marker3154)"
     d="m -91.42012,506.3602 47.80836,-19.5391"
     id="path3144"
     inkscape:connector-curvature="0" />
  <text
     xml:space="preserve"
     style="font-style:normal;font-weight:normal;font-size:40px;line-height:1.25;font-family:sans-serif;letter-spacing:0px;word-spacing:0px;fill:#000000;fill-opacity:1;stroke:none"
     x="92.078171"
     y="534.15399"
     id="text3138-9"><tspan
       sodipodi:role="line"
       x="92.078171"
       y="534.15399"
       id="tspan3140-2">Port2</tspan></text>
  <path
     style="fill:none;stroke:#000000;stroke-width:1px;stroke-linecap:butt;stroke-linejoin:miter;stroke-opacity:1;marker-end:url(#marker3154-8)"
     d="M 94.868476,509.21041 47.060121,489.67131"
     id="path3144-0"
     inkscape:connector-curvature="0" />
  <text
     xml:space="preserve"
     style="font-style:normal;font-weight:normal;font-size:40px;line-height:1.25;font-family:sans-serif;letter-spacing:0px;word-spacing:0px;fill:#000000;fill-opacity:1;stroke:none"
     x="-31.724192"
     y="-74.215935"
     id="text890-1"><tspan
       sodipodi:role="line"
       id="tspan888-2"
       x="-31.724192"
       y="-74.215935">50um</tspan></text>
  <path
     style="fill:none;stroke:#000000;stroke-width:2.83999038px;stroke-linecap:butt;stroke-linejoin:miter;stroke-opacity:1;marker-start:url(#Arrow2Lstart-9);marker-end:url(#Arrow2Lend-3);image-rendering:auto"
     d="M -165.67275,-109.63616 H 166.27899"
     id="path892-9"
     inkscape:connector-curvature="0" />
</svg>
